<svg xmlns="http://www.w3.org/2000/svg" width="1296.951" height="80.275" viewBox="0 0 1296.951 80.275"><path fill="#39885E" stroke="#242830" stroke-miterlimit="10" d="M0 57.268h484M699 57.268h484"/><path fill="#39885E" stroke="#39885E" stroke-width="3" stroke-miterlimit="10" d="M520.905 15.758l14.778 13.876 19.807-4.31-8.627 18.343 10.218 17.51-20.11-2.545-13.492 15.13-3.8-19.907-18.557-8.16 17.762-9.766zM592.746 1.83l8.193 18.544 19.918 3.76-15.103 13.52 2.58 20.108-17.526-10.188-18.327 8.672 4.27-19.818-13.903-14.752 20.163-2.065zM663.33 15.758L648.55 29.634l-19.81-4.31 8.63 18.343-10.22 17.51 20.11-2.545 13.494 15.13 3.8-19.907 18.557-8.16-17.76-9.766z"/></svg>