<?xml version="1.0" encoding="utf-8"?>
<!-- Generator: Adobe Illustrator 16.0.0, SVG Export Plug-In . SVG Version: 6.00 Build 0)  -->
<!DOCTYPE svg PUBLIC "-//W3C//DTD SVG 1.1//EN" "http://www.w3.org/Graphics/SVG/1.1/DTD/svg11.dtd">
<svg version="1.1" id="Layer_1" xmlns="http://www.w3.org/2000/svg" xmlns:xlink="http://www.w3.org/1999/xlink" x="0px" y="0px"
	 width="1296.951px" height="80.275px" viewBox="0 0 1296.951 80.275" enable-background="new 0 0 1296.951 80.275"
	 xml:space="preserve">
<line fill="#39885E" stroke="#242830" stroke-miterlimit="10" x1="0" y1="57.268" x2="484" y2="57.268"/>
<line fill="#39885E" stroke="#242830" stroke-miterlimit="10" x1="699" y1="57.268" x2="1183" y2="57.268"/>
<polygon fill="#39885E" stroke="#39885E" stroke-width="3" stroke-miterlimit="10" points="520.905,15.758 535.683,29.634 
	555.49,25.325 546.863,43.667 557.081,61.177 536.971,58.632 523.478,73.763 519.678,53.855 501.121,45.696 518.882,35.929 "/>
<polygon fill="#39885E" stroke="#39885E" stroke-width="3" stroke-miterlimit="10" points="592.746,1.83 600.939,20.374 
	620.858,24.133 605.755,37.654 608.334,57.762 590.809,47.574 572.483,56.246 576.752,36.428 562.85,21.676 583.013,19.611 "/>
<polygon fill="#39885E" stroke="#39885E" stroke-width="3" stroke-miterlimit="10" points="663.329,15.758 648.552,29.634 
	628.743,25.325 637.371,43.667 627.153,61.177 647.263,58.632 660.756,73.763 664.556,53.855 683.113,45.696 665.352,35.929 "/>
</svg>
